<svg xmlns="http://www.w3.org/2000/svg" viewBox="0 0 1600 900" preserveAspectRatio="xMidYMid slice">
  <defs>
    <linearGradient id="base" x1="0%" y1="0%" x2="100%" y2="100%">
      <stop offset="0%" stop-color="#04111f" />
      <stop offset="100%" stop-color="#081a2d" />
    </linearGradient>
    <radialGradient id="halo" cx="50%" cy="20%" r="45%">
      <stop offset="0%" stop-color="#5fe3c8" stop-opacity="0.24" />
      <stop offset="100%" stop-color="#05111f" stop-opacity="0" />
    </radialGradient>
    <filter id="glow" x="-20%" y="-20%" width="140%" height="140%">
      <feGaussianBlur stdDeviation="12" result="blur" />
      <feMerge>
        <feMergeNode in="blur" />
        <feMergeNode in="SourceGraphic" />
      </feMerge>
    </filter>
  </defs>

  <rect width="1600" height="900" fill="url(#base)" />
  <rect width="1600" height="900" fill="url(#halo)" />

  <g opacity="0.14">
    <path d="M120 170h200m-80-80v160" stroke="#67d4d5" stroke-width="3" stroke-linecap="round" />
    <path d="M400 120h240M520 120v140" stroke="#8ab7ff" stroke-width="3" stroke-linecap="round" />
    <path d="M1100 80h180M1190 80v180" stroke="#7bd2ff" stroke-width="3" stroke-linecap="round" />
    <path d="M340 320h380M520 320v180" stroke="#66c9ee" stroke-width="2.5" stroke-linecap="round" />
    <path d="M900 260h320M1060 260v260" stroke="#55d3a4" stroke-width="2.5" stroke-linecap="round" />
    <path d="M1240 420h180M1320 420v160" stroke="#88d4ff" stroke-width="2.5" stroke-linecap="round" />
  </g>

  <g opacity="0.1">
    <circle cx="180" cy="150" r="14" fill="#7ef0d6" filter="url(#glow)" />
    <circle cx="520" cy="130" r="12" fill="#94c8ff" filter="url(#glow)" />
    <circle cx="1180" cy="100" r="14" fill="#7be0ff" filter="url(#glow)" />
    <circle cx="760" cy="440" r="10" fill="#6cd6c4" filter="url(#glow)" />
    <circle cx="1300" cy="520" r="12" fill="#a1c8ff" filter="url(#glow)" />
  </g>

  <g fill="none" stroke="#ffffff" stroke-opacity="0.08" stroke-width="1.5" opacity="0.9">
    <path d="M0 750h1600" />
    <path d="M0 680h1600" />
    <path d="M0 610h1600" />
    <path d="M0 540h1600" />
    <path d="M0 470h1600" />
  </g>

  <g stroke="#ffffff" stroke-opacity="0.12" stroke-width="2" fill="none">
    <path d="M300 600h220v-80h80" />
    <circle cx="300" cy="600" r="10" fill="#6bd0ff" />
    <circle cx="520" cy="520" r="8" fill="#58d8b0" />
    <path d="M660 180h140v100" />
    <circle cx="660" cy="180" r="10" fill="#92ceff" />
    <circle cx="800" cy="280" r="8" fill="#72d1e2" />
  </g>
</svg>
