<svg xmlns="http://www.w3.org/2000/svg" viewBox="0 0 1600 900" preserveAspectRatio="xMidYMid slice">
  <defs>
    <linearGradient id="base" x1="0%" y1="0%" x2="100%" y2="100%">
      <stop offset="0%" stop-color="#040c18" />
      <stop offset="100%" stop-color="#081a2c" />
    </linearGradient>
    <radialGradient id="chip-glow" cx="50%" cy="50%" r="50%">
      <stop offset="0%" stop-color="#7fe8d5" stop-opacity="0.28" />
      <stop offset="100%" stop-color="#040c18" stop-opacity="0" />
    </radialGradient>
    <linearGradient id="trace" x1="0%" y1="0%" x2="100%" y2="100%">
      <stop offset="0%" stop-color="#5ed1b9" stop-opacity="0.75" />
      <stop offset="100%" stop-color="#84c8ff" stop-opacity="0.75" />
    </linearGradient>
  </defs>

  <rect width="1600" height="900" fill="url(#base)" />
  <circle cx="820" cy="450" r="360" fill="url(#chip-glow)" />

  <g opacity="0.18" fill="none" stroke="#7cd4c3" stroke-width="3">
    <path d="M530 250h540" />
    <path d="M530 310h540" />
    <path d="M530 370h540" />
    <path d="M530 430h540" />
    <path d="M530 490h540" />
    <path d="M530 550h540" />
  </g>

  <rect x="400" y="210" width="800" height="480" rx="48" fill="rgba(5, 26, 45, 0.88)" stroke="#4ebca9" stroke-width="4" />
  <rect x="430" y="240" width="740" height="420" rx="32" fill="rgba(6, 30, 52, 0.54)" />

  <g opacity="0.9">
    <path d="M520 260h540" stroke="#65d4d9" stroke-width="2" />
    <path d="M520 320h540" stroke="#65d4d9" stroke-width="2" />
    <path d="M520 380h540" stroke="#65d4d9" stroke-width="2" />
    <path d="M520 440h540" stroke="#65d4d9" stroke-width="2" />
    <path d="M520 500h540" stroke="#65d4d9" stroke-width="2" />
    <path d="M520 560h540" stroke="#65d4d9" stroke-width="2" />
  </g>

  <g fill="none" stroke="url(#trace)" stroke-width="2.5" opacity="0.72">
    <path d="M520 260v420" />
    <path d="M640 260v420" />
    <path d="M760 260v420" />
    <path d="M880 260v420" />
    <path d="M1000 260v420" />
    <path d="M1120 260v420" />
  </g>

  <g fill="#7de4d1" opacity="0.9">
    <circle cx="540" cy="300" r="8" />
    <circle cx="700" cy="340" r="8" />
    <circle cx="960" cy="500" r="8" />
    <circle cx="1150" cy="410" r="8" />
  </g>

  <g fill="none" stroke="#86e3ff" stroke-width="1.8" opacity="0.28">
    <path d="M460 220h100" />
    <path d="M460 640h100" />
    <path d="M1040 220h100" />
    <path d="M1040 640h100" />
  </g>

  <g fill="#92e9ff" opacity="0.28">
    <circle cx="380" cy="200" r="18" />
    <circle cx="1240" cy="680" r="16" />
  </g>

  <g fill="none" stroke="#78d8d2" stroke-width="1.1" opacity="0.22">
    <path d="M120 760h1360" />
    <path d="M120 680h1360" />
    <path d="M120 600h1360" />
  </g>
</svg>
